REM DIRINDEX 1\5,1\2\6,1\2\7,1\3\8,1\3\9,1\4\10,1\4\11,1\4\12
REM DIRNAME folder01,folder02,folder03,folder04,folder05,folder06,folder07,folder08,folder09,folder10,folder11,folder12
TITLE ""
FILE "EJE_DB3000_5th_6C_37.mp3" MP3
  TRACK 01 AUDIO
    TITLE "0:"
    INDEX 01 00:00:00
  TRACK 02 AUDIO
    TITLE "10:cjc026_11580"
    INDEX 01 00:00:05
  TRACK 03 AUDIO
    TITLE "0:"
    INDEX 01 00:00:70
  TRACK 04 AUDIO
    TITLE "11:cjc026_11581"
    INDEX 01 00:01:21
  TRACK 05 AUDIO
    TITLE "0:"
    INDEX 01 00:02:24
  TRACK 06 AUDIO
    TITLE "12:cjc026_11582"
    INDEX 01 00:02:49
  TRACK 07 AUDIO
    TITLE "0:"
    INDEX 01 00:03:39
  TRACK 08 AUDIO
    TITLE "10:cjc026_11583"
    INDEX 01 00:03:63
  TRACK 09 AUDIO
    TITLE "0:"
    INDEX 01 00:04:50
  TRACK 10 AUDIO
    TITLE "11:cjc026_11584"
    INDEX 01 00:05:03
  TRACK 11 AUDIO
    TITLE "0:"
    INDEX 01 00:06:04
  TRACK 12 AUDIO
    TITLE "12:cjc026_11585"
    INDEX 01 00:06:30
  TRACK 13 AUDIO
    TITLE "0:"
    INDEX 01 00:07:17
  TRACK 14 AUDIO
    TITLE "10:cjc026_11586"
    INDEX 01 00:07:43
  TRACK 15 AUDIO
    TITLE "0:"
    INDEX 01 00:08:34
  TRACK 16 AUDIO
    TITLE "11:cjc026_11587"
    INDEX 01 00:08:60
  TRACK 17 AUDIO
    TITLE "0:"
    INDEX 01 00:09:55
  TRACK 18 AUDIO
    TITLE "12:cjc026_11588"
    INDEX 01 00:10:06
  TRACK 19 AUDIO
    TITLE "0:"
    INDEX 01 00:10:70
  TRACK 20 AUDIO
    TITLE "10:cjc026_11589"
    INDEX 01 00:11:23
  TRACK 21 AUDIO
    TITLE "0:"
    INDEX 01 00:12:16
  TRACK 22 AUDIO
    TITLE "11:cjc026_11590"
    INDEX 01 00:12:42
  TRACK 23 AUDIO
    TITLE "0:"
    INDEX 01 00:13:47
  TRACK 24 AUDIO
    TITLE "12:cjc026_11591"
    INDEX 01 00:14:00
  TRACK 25 AUDIO
    TITLE "0:"
    INDEX 01 00:14:68
  TRACK 26 AUDIO
    TITLE "10:cjc026_11592"
    INDEX 01 00:15:19
  TRACK 27 AUDIO
    TITLE "0:"
    INDEX 01 00:16:12
  TRACK 28 AUDIO
    TITLE "11:cjc026_11593"
    INDEX 01 00:16:38
  TRACK 29 AUDIO
    TITLE "0:"
    INDEX 01 00:17:33
  TRACK 30 AUDIO
    TITLE "12:cjc026_11594"
    INDEX 01 00:17:59
  TRACK 31 AUDIO
    TITLE "0:"
    INDEX 01 00:18:52
  TRACK 32 AUDIO
    TITLE "10:cjc026_11595"
    INDEX 01 00:19:01
  TRACK 33 AUDIO
    TITLE "0:"
    INDEX 01 00:19:60
  TRACK 34 AUDIO
    TITLE "11:cjc026_11596"
    INDEX 01 00:20:12
  TRACK 35 AUDIO
    TITLE "0:"
    INDEX 01 00:20:71
  TRACK 36 AUDIO
    TITLE "12:cjc026_11597"
    INDEX 01 00:21:19
  TRACK 37 AUDIO
    TITLE "0:"
    INDEX 01 00:22:03
  TRACK 38 AUDIO
    TITLE "10:cjc026_11598"
    INDEX 01 00:22:29
  TRACK 39 AUDIO
    TITLE "0:"
    INDEX 01 00:23:24
  TRACK 40 AUDIO
    TITLE "11:cjc026_11599"
    INDEX 01 00:23:50
  TRACK 41 AUDIO
    TITLE "0:"
    INDEX 01 00:24:63
  TRACK 42 AUDIO
    TITLE "12:cjc026_11600"
    INDEX 01 00:25:13
  TRACK 43 AUDIO
    TITLE "0:"
    INDEX 01 00:26:09
  TRACK 44 AUDIO
    TITLE "10:cjc026_11601"
    INDEX 01 00:26:34
  TRACK 45 AUDIO
    TITLE "0:"
    INDEX 01 00:27:22
  TRACK 46 AUDIO
    TITLE "11:cjc026_11602"
    INDEX 01 00:27:47
  TRACK 47 AUDIO
    TITLE "0:"
    INDEX 01 00:28:62
  TRACK 48 AUDIO
    TITLE "12:cjc026_11603"
    INDEX 01 00:29:13
  TRACK 49 AUDIO
    TITLE "0:"
    INDEX 01 00:30:01
  TRACK 50 AUDIO
    TITLE "10:cjc026_11604"
    INDEX 01 00:30:28
  TRACK 51 AUDIO
    TITLE "0:"
    INDEX 01 00:31:26
  TRACK 52 AUDIO
    TITLE "11:cjc026_11605"
    INDEX 01 00:31:51
  TRACK 53 AUDIO
    TITLE "0:"
    INDEX 01 00:32:45
  TRACK 54 AUDIO
    TITLE "12:cjc026_11606"
    INDEX 01 00:32:70
  TRACK 55 AUDIO
    TITLE "0:"
    INDEX 01 00:33:68
  TRACK 56 AUDIO
    TITLE "10:cjc026_11607"
    INDEX 01 00:34:18
  TRACK 57 AUDIO
    TITLE "0:"
    INDEX 01 00:35:04
  TRACK 58 AUDIO
    TITLE "11:cjc026_11608"
    INDEX 01 00:35:29
  TRACK 59 AUDIO
    TITLE "0:"
    INDEX 01 00:36:33
  TRACK 60 AUDIO
    TITLE "12:cjc026_11609"
    INDEX 01 00:36:60
  TRACK 61 AUDIO
    TITLE "0:"
    INDEX 01 00:37:46
  TRACK 62 AUDIO
    TITLE "10:cjc026_11610"
    INDEX 01 00:37:71
  TRACK 63 AUDIO
    TITLE "0:"
    INDEX 01 00:38:69
  TRACK 64 AUDIO
    TITLE "11:cjc026_11611"
    INDEX 01 00:39:19
  TRACK 65 AUDIO
    TITLE "0:"
    INDEX 01 00:40:30
  TRACK 66 AUDIO
    TITLE "12:cjc026_11612"
    INDEX 01 00:40:58
  TRACK 67 AUDIO
    TITLE "0:"
    INDEX 01 00:41:53
  TRACK 68 AUDIO
    TITLE "10:cjc026_11613"
    INDEX 01 00:42:06
  TRACK 69 AUDIO
    TITLE "0:"
    INDEX 01 00:43:05
  TRACK 70 AUDIO
    TITLE "11:cjc026_11614"
    INDEX 01 00:43:31
  TRACK 71 AUDIO
    TITLE "0:"
    INDEX 01 00:44:46
  TRACK 72 AUDIO
    TITLE "12:cjc026_11615"
    INDEX 01 00:44:71
  TRACK 73 AUDIO
    TITLE "0:"
    INDEX 01 00:45:71
  TRACK 74 AUDIO
    TITLE "10:cjc026_11616"
    INDEX 01 00:46:23
  TRACK 75 AUDIO
    TITLE "0:"
    INDEX 01 00:47:32
  TRACK 76 AUDIO
    TITLE "11:cjc026_11617"
    INDEX 01 00:47:58
  TRACK 77 AUDIO
    TITLE "0:"
    INDEX 01 00:48:73
  TRACK 78 AUDIO
    TITLE "12:cjc026_11618"
    INDEX 01 00:49:20
  TRACK 79 AUDIO
    TITLE "0:"
    INDEX 01 00:50:29
